<svg width="1000" height="950" viewBox="0 0 1000 950" xmlns="http://www.w3.org/2000/svg">
<defs>
  <radialGradient id="bg2" cx="50%" cy="38%" r="75%">
    <stop offset="0%" stop-color="#15110a"/>
    <stop offset="55%" stop-color="#0b0805"/>
    <stop offset="100%" stop-color="#050302"/>
  </radialGradient>
  <linearGradient id="inkGrad" x1="260" y1="180" x2="740" y2="580" gradientUnits="userSpaceOnUse">
    <stop offset="0%" stop-color="#F3E4C8"/>
    <stop offset="50%" stop-color="#D9B97D"/>
    <stop offset="100%" stop-color="#B8915A"/>
  </linearGradient>
  <radialGradient id="pearl" cx="38%" cy="32%" r="65%">
    <stop offset="0%" stop-color="#FFF7E8"/>
    <stop offset="40%" stop-color="#EFD3A0"/>
    <stop offset="100%" stop-color="#9B7438"/>
  </radialGradient>
  <filter id="g2" x="-60%" y="-60%" width="220%" height="220%">
    <feGaussianBlur stdDeviation="5" result="b"/>
    <feMerge><feMergeNode in="b"/><feMergeNode in="SourceGraphic"/></feMerge>
  </filter>
</defs>

<rect width="1000" height="950" fill="url(#bg2)"/>

<g transform="translate(500,375)" filter="url(#g2)">
  <ellipse rx="175" ry="225" fill="none" stroke="url(#inkGrad)" stroke-width="3" transform="rotate(58)"/>
  <ellipse rx="175" ry="225" fill="none" stroke="url(#inkGrad)" stroke-width="3" transform="rotate(-58)"/>

  <path d="M -210 -40 Q -226 -52 -214 -66" fill="none" stroke="url(#inkGrad)" stroke-width="3" stroke-linecap="round"/>
  <path d="M 210 -40 Q 226 -52 214 -66" fill="none" stroke="url(#inkGrad)" stroke-width="3" stroke-linecap="round"/>
  <path d="M -210 40 Q -226 52 -214 66" fill="none" stroke="url(#inkGrad)" stroke-width="3" stroke-linecap="round"/>
  <path d="M 210 40 Q 226 52 214 66" fill="none" stroke="url(#inkGrad)" stroke-width="3" stroke-linecap="round"/>

  <circle r="30" fill="url(#pearl)"/>
  <circle r="30" fill="none" stroke="#3a2a14" stroke-width="1" opacity="0.4"/>
  <ellipse cx="-9" cy="-11" rx="7" ry="4.5" fill="#FFFBF0" opacity="0.9"/>
</g>

<text x="500" y="700" text-anchor="middle" font-family="Baskerville, Palatino, Georgia, serif" font-weight="700" font-size="76" letter-spacing="14" fill="#F1E3C9">MAKERS CO</text>
<text x="500" y="753" text-anchor="middle" font-family="Baskerville, Palatino, Georgia, serif" font-style="italic" font-weight="400" font-size="24" letter-spacing="5" fill="#B8915A">We build &#183; you grow</text>
</svg>
