<svg width="1000" height="950" viewBox="0 0 1000 950" xmlns="http://www.w3.org/2000/svg">
<defs>
  <radialGradient id="bg3" cx="50%" cy="40%" r="75%">
    <stop offset="0%" stop-color="#15110a"/>
    <stop offset="55%" stop-color="#0b0805"/>
    <stop offset="100%" stop-color="#050302"/>
  </radialGradient>
  <linearGradient id="inkGrad3" x1="260" y1="180" x2="740" y2="660" gradientUnits="userSpaceOnUse">
    <stop offset="0%" stop-color="#FFE3C4"/>
    <stop offset="50%" stop-color="#E3A97B"/>
    <stop offset="100%" stop-color="#C98B4F"/>
  </linearGradient>
  <radialGradient id="orb3" cx="36%" cy="32%" r="68%">
    <stop offset="0%" stop-color="#FFF3E4"/>
    <stop offset="30%" stop-color="#FFD9B5"/>
    <stop offset="100%" stop-color="#A85F3F"/>
  </radialGradient>
  <line id="tick" x1="500" y1="150" x2="500" y2="165" stroke="url(#inkGrad3)" stroke-width="3"/>
</defs>

<rect width="1000" height="950" fill="url(#bg3)"/>

<g>
  <use href="#tick" transform="rotate(0 500 420)"/>
  <use href="#tick" transform="rotate(15 500 420)"/>
  <use href="#tick" transform="rotate(30 500 420)"/>
  <use href="#tick" transform="rotate(45 500 420)"/>
  <use href="#tick" transform="rotate(60 500 420)"/>
  <use href="#tick" transform="rotate(75 500 420)"/>
  <use href="#tick" transform="rotate(90 500 420)"/>
  <use href="#tick" transform="rotate(105 500 420)"/>
  <use href="#tick" transform="rotate(120 500 420)"/>
  <use href="#tick" transform="rotate(135 500 420)"/>
  <use href="#tick" transform="rotate(150 500 420)"/>
  <use href="#tick" transform="rotate(165 500 420)"/>
  <use href="#tick" transform="rotate(180 500 420)"/>
  <use href="#tick" transform="rotate(195 500 420)"/>
  <use href="#tick" transform="rotate(210 500 420)"/>
  <use href="#tick" transform="rotate(225 500 420)"/>
  <use href="#tick" transform="rotate(240 500 420)"/>
  <use href="#tick" transform="rotate(255 500 420)"/>
  <use href="#tick" transform="rotate(270 500 420)"/>
  <use href="#tick" transform="rotate(285 500 420)"/>
  <use href="#tick" transform="rotate(300 500 420)"/>
  <use href="#tick" transform="rotate(315 500 420)"/>
  <use href="#tick" transform="rotate(330 500 420)"/>
  <use href="#tick" transform="rotate(345 500 420)"/>
</g>

<circle cx="500" cy="420" r="300" fill="none" stroke="url(#inkGrad3)" stroke-width="4"/>
<circle cx="500" cy="420" r="278" fill="none" stroke="url(#inkGrad3)" stroke-width="1.4" opacity="0.6"/>

<g transform="translate(500,360)">
  <ellipse rx="118" ry="42" fill="none" stroke="url(#inkGrad3)" stroke-width="4" transform="rotate(-24)"/>
  <ellipse rx="118" ry="42" fill="none" stroke="url(#inkGrad3)" stroke-width="2.4" transform="rotate(24)" opacity="0.75"/>
  <circle cx="98" cy="-30" r="4.5" fill="#FFE3C4"/>
  <circle r="32" fill="url(#orb3)"/>
  <ellipse cx="-9" cy="-12" rx="8" ry="5" fill="#FFFBF0" opacity="0.85"/>
</g>

<text x="500" y="805" text-anchor="middle" font-family="Avenir Next, Avenir, Helvetica Neue, sans-serif" font-weight="800" font-size="62" letter-spacing="9" fill="#F1E3C9">MAKERS CO</text>

<text x="500" y="858" text-anchor="middle" font-family="Avenir Next, Avenir, Helvetica Neue, sans-serif" font-weight="600" font-size="22" letter-spacing="7" fill="#C9A877">WE BUILD &#183; YOU GROW</text>
</svg>
